<svg width="109" height="88" viewBox="0 0 109 88" fill="none" xmlns="http://www.w3.org/2000/svg">
<path d="M45.571 72.568C44.3763 72.568 43.1817 71.8213 41.987 70.328C40.835 68.8347 39.7683 66.4667 38.787 63.224C37.8057 59.9813 37.0163 55.7573 36.419 50.552C35.8643 45.304 35.587 38.9253 35.587 31.416C35.587 27.2347 35.779 23.9707 36.163 21.624C36.547 19.2347 37.059 17.4853 37.699 16.376C38.3817 15.2667 39.1497 14.5627 40.003 14.264C40.8563 13.9653 41.731 13.816 42.627 13.816C43.779 13.816 44.7603 14.2427 45.571 15.096C46.4243 15.9493 46.851 17.1227 46.851 18.616C46.851 19.9387 46.403 21.5813 45.507 23.544C45.251 25.6347 45.0803 27.512 44.995 29.176C44.9523 30.7973 44.931 32.5253 44.931 34.36C44.931 37.2613 44.9737 40.2267 45.059 43.256C45.187 46.2427 45.3577 49.1227 45.571 51.896C45.7843 54.6267 46.019 57.0587 46.275 59.192C47.3417 56.5893 48.5363 53.7093 49.859 50.552C51.1817 47.3947 52.5043 44.216 53.827 41.016C55.1923 37.816 56.4723 34.808 57.667 31.992C58.9043 29.1333 59.9497 26.7013 60.803 24.696C61.699 22.6907 62.2963 21.3253 62.595 20.6C63.6617 18.04 64.8137 16.2053 66.051 15.096C67.2883 13.9867 68.547 13.432 69.827 13.432C70.851 13.432 71.7257 13.752 72.451 14.392C73.1763 15.032 73.539 16.248 73.539 18.04C73.539 18.3813 73.1977 19.384 72.515 21.048C71.875 22.712 70.979 24.8453 69.827 27.448C68.7177 30.008 67.459 32.8667 66.051 36.024C64.6857 39.1387 63.2777 42.36 61.827 45.688C60.2483 49.3147 58.6697 52.7493 57.091 55.992C55.555 59.2347 54.0617 62.0933 52.611 64.568C51.203 67.0427 49.8803 68.984 48.643 70.392C47.4483 71.8427 46.4243 72.568 45.571 72.568Z" fill="#1ED760"/>
<g filter="url(#filter0_d_106_53)">
<path d="M48.3385 69.496C46.6318 69.496 45.3518 69.0267 44.4985 68.088C43.6452 67.1493 43.2185 66.1893 43.2185 65.208C43.2185 64.056 43.4318 63.1813 43.8585 62.584C44.2852 61.9867 45.1172 61.5387 46.3545 61.24C47.9758 60.8987 49.6612 60.472 51.4105 59.96C53.2025 59.448 54.9092 58.9147 56.5305 58.36C58.1945 57.7627 59.6452 57.1653 60.8825 56.568C62.1198 55.928 63.0158 55.3307 63.5705 54.776C62.8878 54.392 61.7998 53.944 60.3065 53.432C58.8132 52.8773 57.1492 52.2373 55.3145 51.512C53.5225 50.744 51.7945 49.848 50.1305 48.824C48.4665 47.8 47.1012 46.6053 46.0345 45.24C44.9678 43.8747 44.4345 42.3173 44.4345 40.568C44.4345 38.136 45.0532 35.8533 46.2905 33.72C47.5278 31.5867 49.1705 29.6027 51.2185 27.768C53.2665 25.9333 55.4852 24.248 57.8745 22.712C60.3065 21.176 62.7172 19.7893 65.1065 18.552C67.5385 17.272 69.7145 16.1413 71.6345 15.16C72.3598 14.7333 73.0425 14.456 73.6825 14.328C74.3652 14.1573 74.9838 14.072 75.5385 14.072C77.4585 14.072 78.7812 14.5413 79.5065 15.48C80.2318 16.4187 80.5945 17.3787 80.5945 18.36C80.5945 19.0427 80.2745 19.8533 79.6345 20.792C78.9945 21.688 77.9705 22.52 76.5625 23.288C75.1972 24.056 73.3838 24.6107 71.1225 24.952C70.7385 24.9947 70.3972 25.0373 70.0985 25.08C68.3918 25.9333 66.5572 26.9573 64.5945 28.152C62.6318 29.3467 60.7758 30.6053 59.0265 31.928C57.3198 33.208 55.9118 34.488 54.8025 35.768C53.6932 37.048 53.1385 38.2 53.1385 39.224C53.1385 40.376 53.6078 41.4213 54.5465 42.36C55.4852 43.256 56.6798 44.088 58.1305 44.856C59.6238 45.5813 61.1812 46.2853 62.8025 46.968C64.4665 47.6507 66.0238 48.3547 67.4745 49.08C68.9678 49.7627 70.1838 50.5307 71.1225 51.384C72.0612 52.2373 72.5305 53.1973 72.5305 54.264C72.5305 55.7147 72.0398 57.1013 71.0585 58.424C70.0772 59.7467 68.7972 60.984 67.2185 62.136C65.6398 63.2453 63.9118 64.248 62.0345 65.144C60.1572 66.04 58.3012 66.808 56.4665 67.448C54.6745 68.1307 53.0532 68.6427 51.6025 68.984C50.1518 69.3253 49.0638 69.496 48.3385 69.496Z" fill="#44F482" fill-opacity="0.75" shape-rendering="crispEdges"/>
</g>
<defs>
<filter id="filter0_d_106_53" x="39.2185" y="14.072" width="45.376" height="63.424" filterUnits="userSpaceOnUse" color-interpolation-filters="sRGB">
<feFlood flood-opacity="0" result="BackgroundImageFix"/>
<feColorMatrix in="SourceAlpha" type="matrix" values="0 0 0 0 0 0 0 0 0 0 0 0 0 0 0 0 0 0 127 0" result="hardAlpha"/>
<feOffset dy="4"/>
<feGaussianBlur stdDeviation="2"/>
<feComposite in2="hardAlpha" operator="out"/>
<feColorMatrix type="matrix" values="0 0 0 0 0 0 0 0 0 0 0 0 0 0 0 0 0 0 0.25 0"/>
<feBlend mode="normal" in2="BackgroundImageFix" result="effect1_dropShadow_106_53"/>
<feBlend mode="normal" in="SourceGraphic" in2="effect1_dropShadow_106_53" result="shape"/>
</filter>
</defs>
</svg>
